<svg xmlns="http://www.w3.org/2000/svg" viewBox="0 0 1024 1024">
  <defs>
    <linearGradient id="bg" x1="128" y1="96" x2="896" y2="928" gradientUnits="userSpaceOnUse">
      <stop offset="0" stop-color="#111827"/>
      <stop offset="0.56" stop-color="#162034"/>
      <stop offset="1" stop-color="#0b1020"/>
    </linearGradient>
    <linearGradient id="accent" x1="236" y1="240" x2="796" y2="780" gradientUnits="userSpaceOnUse">
      <stop offset="0" stop-color="#38bdf8"/>
      <stop offset="0.52" stop-color="#2563eb"/>
      <stop offset="1" stop-color="#22c55e"/>
    </linearGradient>
    <filter id="shadow" x="-20%" y="-20%" width="140%" height="140%">
      <feDropShadow dx="0" dy="24" stdDeviation="28" flood-color="#000000" flood-opacity="0.32"/>
    </filter>
  </defs>
  <rect x="80" y="80" width="864" height="864" rx="190" fill="url(#bg)"/>
  <path d="M248 690 C345 565 406 430 456 282" fill="none" stroke="#38bdf8" stroke-width="40" stroke-linecap="round" opacity="0.28"/>
  <path d="M584 304 H742 C790 304 820 335 820 380 C820 426 787 451 747 468 L637 514 C597 531 578 557 578 596 H820" fill="none" stroke="url(#accent)" stroke-width="54" stroke-linecap="round" stroke-linejoin="round" opacity="0.72"/>
  <path d="M610 704 H760 C807 704 839 735 839 780 C839 825 807 856 760 856 H612" fill="none" stroke="#22c55e" stroke-width="42" stroke-linecap="round" stroke-linejoin="round" opacity="0.36"/>
  <text x="512" y="642" text-anchor="middle" font-family="SF Pro Display, Inter, Helvetica Neue, Arial, sans-serif" font-size="286" font-weight="800" letter-spacing="-10" fill="#f8fafc" filter="url(#shadow)">V23</text>
  <path d="M230 742 H326 M358 742 H422 M454 742 H490" stroke="#38bdf8" stroke-width="26" stroke-linecap="round"/>
  <path d="M690 228 L808 296 L690 364 Z" fill="#22c55e" opacity="0.92"/>
</svg>
